<svg xmlns="http://www.w3.org/2000/svg" xmlns:xlink="http://www.w3.org/1999/xlink" width="500" zoomAndPan="magnify" viewBox="0 0 375 374.999991" height="500" preserveAspectRatio="xMidYMid meet" version="1.2"><defs><clipPath id="b9112e6875"><path d="M 0 7.339844 L 250 7.339844 L 250 243 L 0 243 Z M 0 7.339844 "/></clipPath><clipPath id="23d0819d30"><path d="M 64 135 L 315 135 L 315 367.339844 L 64 367.339844 Z M 64 135 "/></clipPath><clipPath id="4ee6d2a0d2"><path d="M 187 7.339844 L 375 7.339844 L 375 258 L 187 258 Z M 187 7.339844 "/></clipPath><clipPath id="bd9bbab116"><path d="M 143.8125 124.066406 L 230.8125 124.066406 L 230.8125 224 L 143.8125 224 Z M 143.8125 124.066406 "/></clipPath></defs><g id="2e1376525c"><rect x="0" width="375" y="0" height="374.999991" style="fill:#ffffff;fill-opacity:1;stroke:none;"/><rect x="0" width="375" y="0" height="374.999991" style="fill:#ffffff;fill-opacity:1;stroke:none;"/><g clip-rule="nonzero" clip-path="url(#b9112e6875)"><path style=" stroke:none;fill-rule:nonzero;fill:#ff914d;fill-opacity:1;" d="M 64.628906 242.03125 C 64.753906 196.757812 88.945312 157.15625 125.089844 135.332031 C 143.914062 123.96875 165.980469 117.417969 189.585938 117.417969 C 211.492188 117.417969 232.070312 123.066406 249.976562 132.972656 C 249.976562 132.859375 249.988281 132.746094 249.988281 132.621094 C 249.988281 86.371094 224.847656 46.027344 187.507812 24.414062 C 169.128906 13.78125 147.800781 7.65625 125.03125 7.65625 C 56.023438 7.65625 0.0664062 63.601562 0.0664062 132.613281 C 0.0546875 179.734375 26.132812 220.742188 64.628906 242.03125 Z M 64.628906 242.03125 "/></g><g clip-rule="nonzero" clip-path="url(#23d0819d30)"><path style=" stroke:none;fill-rule:nonzero;fill:#004aad;fill-opacity:1;" d="M 189.585938 367.339844 C 258.59375 367.339844 314.542969 311.394531 314.542969 242.375 C 314.542969 241.464844 314.496094 240.574219 314.476562 239.664062 C 295.648438 251.027344 273.582031 257.578125 249.976562 257.578125 C 227.207031 257.578125 205.878906 251.453125 187.5 240.820312 C 150.890625 219.632812 126.046875 180.4375 125.089844 135.324219 C 88.945312 157.144531 64.753906 196.75 64.628906 242.023438 C 64.628906 242.136719 64.621094 242.25 64.621094 242.375 C 64.621094 311.394531 120.566406 367.339844 189.585938 367.339844 Z M 189.585938 367.339844 "/></g><g clip-rule="nonzero" clip-path="url(#4ee6d2a0d2)"><path style=" stroke:none;fill-rule:nonzero;fill:#0cc0df;fill-opacity:1;" d="M 249.976562 132.632812 C 249.976562 132.746094 249.96875 132.859375 249.96875 132.984375 C 249.84375 179.082031 224.746094 219.28125 187.5 240.839844 C 205.878906 251.472656 227.207031 257.597656 249.976562 257.597656 C 273.582031 257.597656 295.640625 251.046875 314.476562 239.683594 C 350.714844 217.804688 374.945312 178.058594 374.945312 132.640625 C 374.945312 63.632812 318.996094 7.683594 249.976562 7.683594 C 227.207031 7.683594 205.878906 13.808594 187.5 24.445312 C 224.839844 46.039062 249.976562 86.382812 249.976562 132.632812 Z M 249.976562 132.632812 "/></g><path style=" stroke:none;fill-rule:nonzero;fill:#000000;fill-opacity:1;" d="M 187.5 240.839844 C 224.746094 219.28125 249.84375 179.082031 249.96875 132.980469 C 232.0625 123.078125 211.484375 117.425781 189.574219 117.425781 C 165.972656 117.425781 143.914062 123.976562 125.078125 135.34375 C 126.046875 180.445312 150.890625 219.652344 187.5 240.839844 Z M 187.5 240.839844 "/><g clip-rule="nonzero" clip-path="url(#bd9bbab116)"><path style=" stroke:none;fill-rule:nonzero;fill:#ffffff;fill-opacity:1;" d="M 187.46875 133.03125 C 187.71875 133.03125 187.941406 133.148438 188.226562 133.359375 C 193.074219 137.039062 198.449219 139.9375 204.203125 141.976562 C 209.570312 143.878906 215.46875 145.105469 221.730469 145.621094 L 221.746094 145.621094 C 222.160156 145.660156 222.480469 146.011719 222.488281 146.441406 C 222.625 155.832031 221.304688 165.300781 218.5625 174.589844 C 213.671875 191.175781 204.039062 204.339844 189.9375 213.710938 C 187.886719 215.074219 186.507812 215.15625 184.472656 214.03125 C 165.984375 203.773438 155.570312 187.515625 152.613281 164.316406 C 151.90625 158.777344 151.675781 153.09375 151.90625 146.949219 C 151.933594 146.242188 152.464844 145.65625 153.164062 145.566406 C 159.910156 144.648438 167.066406 143.503906 173.878906 140.515625 C 178.117188 138.65625 182.179688 136.386719 185.953125 133.773438 C 186.683594 133.265625 187.105469 133.03125 187.46875 133.03125 Z M 230.398438 145.945312 C 230.359375 144.359375 230.25 142.683594 229.507812 141.207031 C 228.636719 139.484375 227.148438 138.316406 224.941406 137.621094 C 223.164062 137.066406 221.1875 136.910156 219.453125 136.769531 L 219.421875 136.769531 C 211.007812 136.09375 202.8125 133.167969 195.714844 128.3125 C 195.492188 128.160156 195.269531 128.007812 195.046875 127.851562 C 192.875 126.347656 190.628906 124.785156 187.890625 124.65625 C 184.816406 124.503906 182.109375 126.261719 179.722656 127.816406 C 179.519531 127.941406 179.324219 128.070312 179.128906 128.199219 C 173.605469 131.75 167.582031 134.316406 161.21875 135.820312 C 158.421875 136.480469 155.421875 136.925781 151.777344 137.222656 C 148.328125 137.5 145.902344 139.066406 144.773438 141.75 C 143.980469 143.617188 143.875 145.621094 143.828125 147.6875 C 143.792969 149.261719 143.789062 150.84375 143.808594 152.378906 C 144.023438 170.132812 147.746094 185.121094 154.875 196.929688 C 157.695312 201.601562 161.203125 206.011719 165.304688 210.035156 C 169.140625 213.800781 173.503906 217.246094 178.28125 220.277344 C 180.933594 221.957031 183.8125 223.496094 186.921875 223.496094 C 187.105469 223.496094 187.285156 223.492188 187.46875 223.484375 C 190.199219 223.320312 192.644531 221.957031 194.875 220.503906 C 200.648438 216.742188 205.9375 212.019531 210.605469 206.460938 C 215.160156 201.027344 219.019531 194.925781 222.058594 188.328125 C 227.941406 175.570312 230.824219 160.917969 230.398438 145.945312 "/></g><path style=" stroke:none;fill-rule:nonzero;fill:#ffffff;fill-opacity:1;" d="M 205.765625 165.542969 C 205.691406 166.015625 205.339844 166.386719 205 166.722656 C 197.992188 173.734375 190.996094 180.753906 183.992188 187.761719 C 183.398438 188.355469 182.644531 189.003906 181.828125 188.816406 C 181.371094 188.710938 181.019531 188.367188 180.691406 188.039062 C 176.914062 184.257812 173.136719 180.480469 169.359375 176.699219 C 168.921875 176.257812 168.449219 175.75 168.449219 175.128906 C 168.457031 174.519531 168.910156 174.019531 169.339844 173.59375 C 170.480469 172.433594 171.621094 171.285156 172.761719 170.128906 C 173.21875 169.667969 173.742188 169.179688 174.390625 169.152344 C 175.105469 169.117188 175.703125 169.664062 176.207031 170.171875 C 178.207031 172.179688 180.207031 174.183594 182.207031 176.183594 C 187.503906 170.875 192.800781 165.5625 198.097656 160.253906 C 198.550781 159.800781 199.066406 159.320312 199.707031 159.296875 C 200.414062 159.269531 200.996094 159.8125 201.496094 160.3125 C 202.601562 161.425781 203.710938 162.546875 204.824219 163.667969 C 205.332031 164.1875 205.890625 164.824219 205.765625 165.542969 Z M 216.089844 152.226562 C 216.078125 151.429688 215.472656 150.757812 214.675781 150.691406 C 214.675781 150.6875 214.671875 150.6875 214.664062 150.6875 C 205.171875 149.902344 196.339844 147.054688 188.511719 141.128906 C 187.402344 140.289062 186.582031 140.785156 185.644531 141.429688 C 182.65625 143.5 179.515625 145.253906 176.203125 146.707031 C 170.925781 149.019531 165.363281 149.925781 159.582031 150.703125 C 158.824219 150.800781 158.253906 151.429688 158.226562 152.191406 C 158.019531 157.171875 158.179688 161.871094 158.773438 166.550781 C 161.0625 184.519531 169.210938 198.21875 184.542969 206.726562 C 186.46875 207.792969 187.941406 207.691406 189.824219 206.441406 C 201.171875 198.902344 208.9375 188.417969 212.9375 174.859375 C 215.109375 167.503906 216.207031 159.957031 216.089844 152.226562 "/></g></svg>
