<?xml version="1.0" encoding="UTF-8"?>
<!DOCTYPE svg PUBLIC "-//W3C//DTD SVG 1.1//EN" "http://www.w3.org/Graphics/SVG/1.1/DTD/svg11.dtd">
<svg xmlns="http://www.w3.org/2000/svg" version="1.1" width="500px" height="500px" style="shape-rendering:geometricPrecision; text-rendering:geometricPrecision; image-rendering:optimizeQuality; fill-rule:evenodd; clip-rule:evenodd" xmlns:xlink="http://www.w3.org/1999/xlink">
<g><path style="opacity:1" fill="#020202" d="M 227.5,-0.5 C 242.167,-0.5 256.833,-0.5 271.5,-0.5C 357.939,9.82833 423.439,52.1617 468,126.5C 485.172,158.215 495.672,191.881 499.5,227.5C 499.5,242.167 499.5,256.833 499.5,271.5C 487.709,365.958 439.375,434.458 354.5,477C 327.949,489.052 300.282,496.552 271.5,499.5C 256.833,499.5 242.167,499.5 227.5,499.5C 132.11,487.584 63.2768,438.584 21,352.5C 9.58596,326.504 2.41929,299.504 -0.5,271.5C -0.5,256.833 -0.5,242.167 -0.5,227.5C 11.2915,133.042 59.6248,64.5418 144.5,22C 170.977,9.66726 198.644,2.16726 227.5,-0.5 Z"/></g>
<g><path style="opacity:1" fill="#f68c4b" d="M 237.5,66.5 C 232.156,66.334 226.823,66.5006 221.5,67C 219.618,67.1981 217.952,67.6981 216.5,68.5C 188.555,70.4628 161.388,76.1295 135,85.5C 133.278,85.3893 133.112,84.8893 134.5,84C 197.673,42.8446 264.006,37.178 333.5,67C 339.78,70.5301 346.113,73.8634 352.5,77C 342.082,75.762 331.748,73.762 321.5,71C 293.648,67.0026 265.648,65.5026 237.5,66.5 Z"/></g>
<g><path style="opacity:1" fill="#4f3525" d="M 237.5,66.5 C 230.691,67.6525 223.691,68.3192 216.5,68.5C 217.952,67.6981 219.618,67.1981 221.5,67C 226.823,66.5006 232.156,66.334 237.5,66.5 Z"/></g>
<g><path style="opacity:1" fill="#fbfbfb" d="M 382.5,198.5 C 380.946,202.567 380.28,206.9 380.5,211.5C 370.219,279.573 338.552,335.407 285.5,379C 279.5,383 273.5,387 267.5,391C 255.316,397.848 242.983,398.181 230.5,392C 163.31,353.159 125.644,294.992 117.5,217.5C 117.706,214.505 117.04,211.838 115.5,209.5C 114.532,189.175 114.365,168.842 115,148.5C 116.938,137.893 123.105,131.06 133.5,128C 159.522,126.662 184.189,120.328 207.5,109C 218.396,103.115 229.063,96.7818 239.5,90C 247.8,87.51 255.8,88.1767 263.5,92C 285.931,108.713 310.931,119.713 338.5,125C 347.21,125.634 355.877,126.634 364.5,128C 375.448,130.614 381.948,137.448 384,148.5C 384.55,165.197 384.05,181.863 382.5,198.5 Z"/></g>
<g><path style="opacity:1" fill="#050505" d="M 323.5,148.5 C 325.838,150.04 328.505,150.706 331.5,150.5C 340.32,152.043 349.153,153.376 358,154.5C 361.069,218.95 342.736,276.283 303,326.5C 292.77,337.399 281.937,347.566 270.5,357C 265.833,360.333 261.167,363.667 256.5,367C 251.987,369.754 247.32,370.087 242.5,368C 189.05,337.942 156.55,292.775 145,232.5C 140.295,207.035 138.628,181.368 140,155.5C 140.383,154.944 140.883,154.611 141.5,154.5C 144.152,154.59 146.485,153.924 148.5,152.5C 150.5,152.5 152.5,152.5 154.5,152.5C 157.428,152.435 160.095,151.768 162.5,150.5C 184.433,147.356 205.1,140.522 224.5,130C 232.99,124.849 241.49,119.682 250,114.5C 272.064,131.055 296.564,142.388 323.5,148.5 Z"/></g>
<g><path style="opacity:1" fill="#fdfdfd" d="M 246.5,138.5 C 248.989,138.298 251.323,138.798 253.5,140C 278.361,157.581 306.028,167.581 336.5,170C 337.333,170.833 338.167,171.667 339,172.5C 340.687,223.429 326.353,269.095 296,309.5C 284.717,322.121 272.217,333.288 258.5,343C 252.335,347.121 246.002,347.454 239.5,344C 194.147,316.492 167.981,276.325 161,223.5C 158.976,206.547 158.31,189.547 159,172.5C 159.833,171.667 160.667,170.833 161.5,170C 193.02,167.557 221.354,157.057 246.5,138.5 Z"/></g>
<g><path style="opacity:1" fill="#828282" d="M 323.5,148.5 C 326.428,148.565 329.095,149.232 331.5,150.5C 328.505,150.706 325.838,150.04 323.5,148.5 Z"/></g>
<g><path style="opacity:1" fill="#5d5d5d" d="M 162.5,150.5 C 160.095,151.768 157.428,152.435 154.5,152.5C 156.78,150.777 159.447,150.111 162.5,150.5 Z"/></g>
<g><path style="opacity:1" fill="#5e5e5e" d="M 148.5,152.5 C 146.485,153.924 144.152,154.59 141.5,154.5C 143.515,153.076 145.848,152.41 148.5,152.5 Z"/></g>
<g><path style="opacity:1" fill="#0149ab" d="M 246.5,448.5 C 242.702,449.483 238.702,449.817 234.5,449.5C 157.867,441.353 102.033,403.019 67,334.5C 47.4618,289.911 43.4618,243.911 55,196.5C 57.1218,190.922 59.1218,185.255 61,179.5C 83.473,296.727 145.306,386.393 246.5,448.5 Z"/></g>
<g><path style="opacity:1" fill="#0cbddc" d="M 437.5,183.5 C 439.284,184.574 440.451,186.24 441,188.5C 460.964,261.711 446.63,327.044 398,384.5C 359.058,426.213 310.891,447.713 253.5,449C 348.616,390.193 409.449,306.359 436,197.5C 436.994,192.882 437.494,188.215 437.5,183.5 Z"/></g>
<g><path style="opacity:1" fill="#040404" d="M 286.5,196.5 C 289.226,196.264 291.559,197.097 293.5,199C 299.136,203.793 303.803,209.293 307.5,215.5C 307.167,216.167 306.833,216.833 306.5,217.5C 283.202,240.963 259.535,264.463 235.5,288C 234.167,288.667 232.833,288.667 231.5,288C 218,274.5 204.5,261 191,247.5C 190.48,245.711 190.813,244.044 192,242.5C 197.124,236.533 202.958,231.533 209.5,227.5C 210.938,227.719 212.271,228.219 213.5,229C 219.833,235.333 226.167,241.667 232.5,248C 233.167,248.667 233.833,248.667 234.5,248C 251.987,230.725 269.321,213.559 286.5,196.5 Z"/></g>
<g><path style="opacity:1" fill="#4d4d4d" d="M 382.5,198.5 C 382.72,203.1 382.054,207.433 380.5,211.5C 380.28,206.9 380.946,202.567 382.5,198.5 Z"/></g>
<g><path style="opacity:1" fill="#9b9b9b" d="M 115.5,209.5 C 117.04,211.838 117.706,214.505 117.5,217.5C 116.232,215.095 115.565,212.428 115.5,209.5 Z"/></g>
<g><path style="opacity:1" fill="#021a38" d="M 246.5,448.5 C 247.376,448.369 248.043,448.702 248.5,449.5C 243.682,450.812 239.015,450.812 234.5,449.5C 238.702,449.817 242.702,449.483 246.5,448.5 Z"/></g>
</svg>
